<svg id="visual" viewBox="0 0 960 540" width="960" height="540" xmlns="http://www.w3.org/2000/svg" xmlns:xlink="http://www.w3.org/1999/xlink" version="1.1"><rect x="0" y="0" width="960" height="540" fill="#001220"></rect><path d="M0 437L8.8 436.5C17.7 436 35.3 435 53.2 433.2C71 431.3 89 428.7 106.8 427.5C124.7 426.3 142.3 426.7 160 422.8C177.7 419 195.3 411 213.2 407.7C231 404.3 249 405.7 266.8 406.8C284.7 408 302.3 409 320 412.5C337.7 416 355.3 422 373.2 427.2C391 432.3 409 436.7 426.8 433.5C444.7 430.3 462.3 419.7 480 414.7C497.7 409.7 515.3 410.3 533.2 413.2C551 416 569 421 586.8 419C604.7 417 622.3 408 640 409C657.7 410 675.3 421 693.2 423.5C711 426 729 420 746.8 417.2C764.7 414.3 782.3 414.7 800 416.2C817.7 417.7 835.3 420.3 853.2 421.5C871 422.7 889 422.3 906.8 418.8C924.7 415.3 942.3 408.7 951.2 405.3L960 402L960 541L951.2 541C942.3 541 924.7 541 906.8 541C889 541 871 541 853.2 541C835.3 541 817.7 541 800 541C782.3 541 764.7 541 746.8 541C729 541 711 541 693.2 541C675.3 541 657.7 541 640 541C622.3 541 604.7 541 586.8 541C569 541 551 541 533.2 541C515.3 541 497.7 541 480 541C462.3 541 444.7 541 426.8 541C409 541 391 541 373.2 541C355.3 541 337.7 541 320 541C302.3 541 284.7 541 266.8 541C249 541 231 541 213.2 541C195.3 541 177.7 541 160 541C142.3 541 124.7 541 106.8 541C89 541 71 541 53.2 541C35.3 541 17.7 541 8.8 541L0 541Z" fill="#3a0b73"></path><path d="M0 428L8.8 432.3C17.7 436.7 35.3 445.3 53.2 449.8C71 454.3 89 454.7 106.8 455.7C124.7 456.7 142.3 458.3 160 453.3C177.7 448.3 195.3 436.7 213.2 434.7C231 432.7 249 440.3 266.8 445.7C284.7 451 302.3 454 320 453.7C337.7 453.3 355.3 449.7 373.2 447.7C391 445.7 409 445.3 426.8 442.7C444.7 440 462.3 435 480 434C497.7 433 515.3 436 533.2 436.2C551 436.3 569 433.7 586.8 436.2C604.7 438.7 622.3 446.3 640 447.5C657.7 448.7 675.3 443.3 693.2 438.5C711 433.7 729 429.3 746.8 428C764.7 426.7 782.3 428.3 800 428.3C817.7 428.3 835.3 426.7 853.2 431C871 435.3 889 445.7 906.8 447C924.7 448.3 942.3 440.7 951.2 436.8L960 433L960 541L951.2 541C942.3 541 924.7 541 906.8 541C889 541 871 541 853.2 541C835.3 541 817.7 541 800 541C782.3 541 764.7 541 746.8 541C729 541 711 541 693.2 541C675.3 541 657.7 541 640 541C622.3 541 604.7 541 586.8 541C569 541 551 541 533.2 541C515.3 541 497.7 541 480 541C462.3 541 444.7 541 426.8 541C409 541 391 541 373.2 541C355.3 541 337.7 541 320 541C302.3 541 284.7 541 266.8 541C249 541 231 541 213.2 541C195.3 541 177.7 541 160 541C142.3 541 124.7 541 106.8 541C89 541 71 541 53.2 541C35.3 541 17.7 541 8.8 541L0 541Z" fill="#490f91"></path><path d="M0 482L8.8 480.8C17.7 479.7 35.3 477.3 53.2 476.8C71 476.3 89 477.7 106.8 479C124.7 480.3 142.3 481.7 160 479.8C177.7 478 195.3 473 213.2 472.2C231 471.3 249 474.7 266.8 475.5C284.7 476.3 302.3 474.7 320 469.8C337.7 465 355.3 457 373.2 457.3C391 457.7 409 466.3 426.8 466.5C444.7 466.7 462.3 458.3 480 455.7C497.7 453 515.3 456 533.2 458.5C551 461 569 463 586.8 462.5C604.7 462 622.3 459 640 460.3C657.7 461.7 675.3 467.3 693.2 469C711 470.7 729 468.3 746.8 469.3C764.7 470.3 782.3 474.7 800 472.8C817.7 471 835.3 463 853.2 458.8C871 454.7 889 454.3 906.8 457C924.7 459.7 942.3 465.3 951.2 468.2L960 471L960 541L951.2 541C942.3 541 924.7 541 906.8 541C889 541 871 541 853.2 541C835.3 541 817.7 541 800 541C782.3 541 764.7 541 746.8 541C729 541 711 541 693.2 541C675.3 541 657.7 541 640 541C622.3 541 604.7 541 586.8 541C569 541 551 541 533.2 541C515.3 541 497.7 541 480 541C462.3 541 444.7 541 426.8 541C409 541 391 541 373.2 541C355.3 541 337.7 541 320 541C302.3 541 284.7 541 266.8 541C249 541 231 541 213.2 541C195.3 541 177.7 541 160 541C142.3 541 124.7 541 106.8 541C89 541 71 541 53.2 541C35.3 541 17.7 541 8.8 541L0 541Z" fill="#5912b0"></path><path d="M0 501L8.8 500.3C17.7 499.7 35.3 498.3 53.2 493.8C71 489.3 89 481.7 106.8 482.7C124.7 483.7 142.3 493.3 160 495.2C177.7 497 195.3 491 213.2 489.8C231 488.7 249 492.3 266.8 493.5C284.7 494.7 302.3 493.3 320 491.7C337.7 490 355.3 488 373.2 489.2C391 490.3 409 494.7 426.8 495.8C444.7 497 462.3 495 480 494C497.7 493 515.3 493 533.2 491.2C551 489.3 569 485.7 586.8 483.7C604.7 481.7 622.3 481.3 640 483.8C657.7 486.3 675.3 491.7 693.2 491.7C711 491.7 729 486.3 746.8 482.7C764.7 479 782.3 477 800 480.3C817.7 483.7 835.3 492.3 853.2 492.8C871 493.3 889 485.7 906.8 484.7C924.7 483.7 942.3 489.3 951.2 492.2L960 495L960 541L951.2 541C942.3 541 924.7 541 906.8 541C889 541 871 541 853.2 541C835.3 541 817.7 541 800 541C782.3 541 764.7 541 746.8 541C729 541 711 541 693.2 541C675.3 541 657.7 541 640 541C622.3 541 604.7 541 586.8 541C569 541 551 541 533.2 541C515.3 541 497.7 541 480 541C462.3 541 444.7 541 426.8 541C409 541 391 541 373.2 541C355.3 541 337.7 541 320 541C302.3 541 284.7 541 266.8 541C249 541 231 541 213.2 541C195.3 541 177.7 541 160 541C142.3 541 124.7 541 106.8 541C89 541 71 541 53.2 541C35.3 541 17.7 541 8.8 541L0 541Z" fill="#6915d0"></path><path d="M0 510L8.8 509.7C17.7 509.3 35.3 508.7 53.2 509.7C71 510.7 89 513.3 106.8 514.8C124.7 516.3 142.3 516.7 160 513.8C177.7 511 195.3 505 213.2 503.5C231 502 249 505 266.8 507.2C284.7 509.3 302.3 510.7 320 510.2C337.7 509.7 355.3 507.3 373.2 505.2C391 503 409 501 426.8 503C444.7 505 462.3 511 480 512.2C497.7 513.3 515.3 509.7 533.2 510.3C551 511 569 516 586.8 515.8C604.7 515.7 622.3 510.3 640 507.2C657.7 504 675.3 503 693.2 505.7C711 508.3 729 514.7 746.8 517.8C764.7 521 782.3 521 800 517.5C817.7 514 835.3 507 853.2 506.2C871 505.3 889 510.7 906.8 511C924.7 511.3 942.3 506.7 951.2 504.3L960 502L960 541L951.2 541C942.3 541 924.7 541 906.8 541C889 541 871 541 853.2 541C835.3 541 817.7 541 800 541C782.3 541 764.7 541 746.8 541C729 541 711 541 693.2 541C675.3 541 657.7 541 640 541C622.3 541 604.7 541 586.8 541C569 541 551 541 533.2 541C515.3 541 497.7 541 480 541C462.3 541 444.7 541 426.8 541C409 541 391 541 373.2 541C355.3 541 337.7 541 320 541C302.3 541 284.7 541 266.8 541C249 541 231 541 213.2 541C195.3 541 177.7 541 160 541C142.3 541 124.7 541 106.8 541C89 541 71 541 53.2 541C35.3 541 17.7 541 8.8 541L0 541Z" fill="#7a19f1"></path></svg>