<svg id="visual" viewBox="0 0 900 600" width="900" height="600" xmlns="http://www.w3.org/2000/svg" xmlns:xlink="http://www.w3.org/1999/xlink" version="1.1"><rect x="0" y="0" width="900" height="600" fill="#001220"></rect><path d="M0 385L21.5 382.5C43 380 86 375 128.8 385.2C171.7 395.3 214.3 420.7 257.2 433.5C300 446.3 343 446.7 385.8 443.2C428.7 439.7 471.3 432.3 514.2 416.7C557 401 600 377 642.8 376.8C685.7 376.7 728.3 400.3 771.2 406.3C814 412.3 857 400.7 878.5 394.8L900 389L900 601L878.5 601C857 601 814 601 771.2 601C728.3 601 685.7 601 642.8 601C600 601 557 601 514.2 601C471.3 601 428.7 601 385.8 601C343 601 300 601 257.2 601C214.3 601 171.7 601 128.8 601C86 601 43 601 21.5 601L0 601Z" fill="#fa7268"></path><path d="M0 441L21.5 447C43 453 86 465 128.8 458C171.7 451 214.3 425 257.2 425.5C300 426 343 453 385.8 459.3C428.7 465.7 471.3 451.3 514.2 443.7C557 436 600 435 642.8 439.7C685.7 444.3 728.3 454.7 771.2 455.5C814 456.3 857 447.7 878.5 443.3L900 439L900 601L878.5 601C857 601 814 601 771.2 601C728.3 601 685.7 601 642.8 601C600 601 557 601 514.2 601C471.3 601 428.7 601 385.8 601C343 601 300 601 257.2 601C214.3 601 171.7 601 128.8 601C86 601 43 601 21.5 601L0 601Z" fill="#ef5f67"></path><path d="M0 490L21.5 485C43 480 86 470 128.8 464.8C171.7 459.7 214.3 459.3 257.2 463.7C300 468 343 477 385.8 480.3C428.7 483.7 471.3 481.3 514.2 475.7C557 470 600 461 642.8 456.7C685.7 452.3 728.3 452.7 771.2 461.5C814 470.3 857 487.7 878.5 496.3L900 505L900 601L878.5 601C857 601 814 601 771.2 601C728.3 601 685.7 601 642.8 601C600 601 557 601 514.2 601C471.3 601 428.7 601 385.8 601C343 601 300 601 257.2 601C214.3 601 171.7 601 128.8 601C86 601 43 601 21.5 601L0 601Z" fill="#e34c67"></path><path d="M0 506L21.5 511C43 516 86 526 128.8 529.8C171.7 533.7 214.3 531.3 257.2 528.5C300 525.7 343 522.3 385.8 516.2C428.7 510 471.3 501 514.2 500.2C557 499.3 600 506.7 642.8 514.3C685.7 522 728.3 530 771.2 534C814 538 857 538 878.5 538L900 538L900 601L878.5 601C857 601 814 601 771.2 601C728.3 601 685.7 601 642.8 601C600 601 557 601 514.2 601C471.3 601 428.7 601 385.8 601C343 601 300 601 257.2 601C214.3 601 171.7 601 128.8 601C86 601 43 601 21.5 601L0 601Z" fill="#d53867"></path><path d="M0 559L21.5 561.3C43 563.7 86 568.3 128.8 568.3C171.7 568.3 214.3 563.7 257.2 562.7C300 561.7 343 564.3 385.8 561.3C428.7 558.3 471.3 549.7 514.2 550.5C557 551.3 600 561.7 642.8 563.3C685.7 565 728.3 558 771.2 553.7C814 549.3 857 547.7 878.5 546.8L900 546L900 601L878.5 601C857 601 814 601 771.2 601C728.3 601 685.7 601 642.8 601C600 601 557 601 514.2 601C471.3 601 428.7 601 385.8 601C343 601 300 601 257.2 601C214.3 601 171.7 601 128.8 601C86 601 43 601 21.5 601L0 601Z" fill="#c62368"></path></svg>